<svg width="800" height="800" viewBox="0 0 800 800" fill="none" xmlns="http://www.w3.org/2000/svg">
<g clip-path="url(#clip0_36_100)">
<path d="M662.069 0H137.931C122.691 0 110.345 12.3453 110.345 27.5859V772.414C110.345 787.655 122.691 800 137.931 800H662.069C677.309 800 689.655 787.655 689.655 772.414V27.5859C689.655 12.3453 677.311 0 662.069 0Z" fill="#E6EEF4"/>
<path d="M193.104 151.723C223.578 151.723 248.276 127.023 248.276 96.5515C248.276 66.0796 223.576 41.3796 193.104 41.3796C186.764 41.3796 180.567 42.4515 174.701 44.5312C166.495 47.4203 159.348 52.375 152.511 59.2125C147.125 64.5984 147.125 73.3328 152.511 78.7187C157.897 84.1046 166.631 84.1046 172.017 78.7187C176.161 74.575 180.006 71.9093 183.892 70.5406C186.834 69.4968 189.914 68.9656 193.104 68.9656C208.342 68.9656 220.69 81.314 220.69 96.5515C220.69 111.789 208.342 124.137 193.104 124.137H179.353C171.736 124.137 165.559 130.312 165.559 137.931C165.559 145.548 171.734 151.725 179.353 151.725L193.104 151.723Z" fill="#D71E00"/>
<path d="M193.108 234.479C223.581 234.479 248.28 209.78 248.28 179.308C248.28 148.836 223.58 124.136 193.108 124.136H179.314C171.697 124.136 165.52 130.311 165.52 137.929C165.52 145.547 171.695 151.723 179.314 151.723H193.108C208.345 151.723 220.694 164.072 220.694 179.309C220.694 194.547 208.345 206.895 193.108 206.895C185.595 206.895 178.348 203.484 172.061 197.197C166.675 191.811 157.941 191.811 152.555 197.197C147.169 202.583 147.169 211.317 152.555 216.703C163.726 227.875 177.762 234.479 193.108 234.479Z" fill="#D71E00"/>
<path d="M400.437 399.967C415.292 362.133 446.726 331.002 486.188 331.002C519.403 331.002 549.002 346.616 568.948 372.381C593.968 404.713 611.651 476.684 556.893 531.444C529.113 559.222 400.437 689.622 400.437 689.622C400.437 689.622 271.76 559.222 243.982 531.442C189.223 476.683 206.906 404.711 231.928 372.38C251.873 346.614 281.473 331 314.687 331C354.148 331.002 385.582 362.133 400.437 399.967Z" fill="#D71E00"/>
</g>
<defs>
<clipPath id="clip0_36_100">
<rect width="800" height="800" fill="white"/>
</clipPath>
</defs>
</svg>
