<svg width="580" height="800" viewBox="0 0 580 800" fill="none" xmlns="http://www.w3.org/2000/svg">
<g clip-path="url(#clip0_50_15)">
<path d="M552.069 0H27.931C12.691 0 0.344971 12.3453 0.344971 27.5859V772.414C0.344971 787.655 12.691 800 27.931 800H552.069C567.309 800 579.655 787.655 579.655 772.414V27.5859C579.655 12.3453 567.311 0 552.069 0Z" fill="#E6EEF4"/>
<path d="M83.1039 151.723C113.578 151.723 138.276 127.023 138.276 96.5515C138.276 66.0796 113.576 41.3796 83.1039 41.3796C76.7639 41.3796 70.5669 42.4515 64.7009 44.5312C56.4949 47.4203 49.3479 52.375 42.5109 59.2125C37.1249 64.5984 37.1249 73.3328 42.5109 78.7187C47.8969 84.1046 56.6309 84.1046 62.0169 78.7187C66.1609 74.575 70.0059 71.9093 73.8919 70.5406C76.8339 69.4968 79.9139 68.9656 83.1039 68.9656C98.3419 68.9656 110.69 81.314 110.69 96.5515C110.69 111.789 98.3419 124.137 83.1039 124.137H69.3529C61.7359 124.137 55.5589 130.312 55.5589 137.931C55.5589 145.548 61.7339 151.725 69.3529 151.725L83.1039 151.723Z" fill="black"/>
<path d="M83.1079 234.479C113.581 234.479 138.28 209.78 138.28 179.308C138.28 148.836 113.58 124.136 83.1079 124.136H69.3139C61.6969 124.136 55.5199 130.311 55.5199 137.929C55.5199 145.547 61.6949 151.723 69.3139 151.723H83.1079C98.3449 151.723 110.694 164.072 110.694 179.309C110.694 194.547 98.3449 206.895 83.1079 206.895C75.5949 206.895 68.3479 203.484 62.0609 197.197C56.6749 191.811 47.9409 191.811 42.5549 197.197C37.1689 202.583 37.1689 211.317 42.5549 216.703C53.7259 227.875 67.7619 234.479 83.1079 234.479Z" fill="black"/>
<path d="M331.483 565.517C331.483 565.517 400.738 634.772 455.62 551.724C484.186 508.495 464.82 466.386 434.366 437.283L303.263 308.166C295.883 301.877 284.545 301.877 277.152 308.166L144.145 437.283C117.98 464.663 95.6907 508.386 124.586 551.724C179.758 634.483 248.724 565.517 248.724 565.517C248.724 600.869 238.655 646.303 235.717 658.772C235.317 660.51 236.655 662.069 238.434 662.069H341.786C343.566 662.069 344.889 660.511 344.489 658.786C341.566 646.277 331.483 600.649 331.483 565.517Z" fill="black"/>
</g>
<defs>
<clipPath id="clip0_50_15">
<rect width="580" height="800" fill="white"/>
</clipPath>
</defs>
</svg>
