<svg width="800" height="800" viewBox="0 0 800 800" fill="none" xmlns="http://www.w3.org/2000/svg">
<path d="M662.069 0H137.931C122.691 0 110.345 12.3453 110.345 27.5859V772.414C110.345 787.655 122.691 800 137.931 800H662.069C677.309 800 689.655 787.655 689.655 772.414V27.5859C689.655 12.3453 677.311 0 662.069 0Z" fill="#E6EEF4"/>
<path d="M154.483 157.241C149.912 163.334 151.147 171.98 157.242 176.552C163.336 181.122 171.981 179.888 176.553 173.792L259.312 63.4469C263.883 57.3531 262.648 48.7078 256.553 44.1359C250.459 39.5656 241.814 40.8 237.242 46.8953L154.483 157.241Z" fill="#D71E00"/>
<path d="M234.482 220.689C234.482 228.306 240.657 234.483 248.276 234.483C255.895 234.483 262.07 228.308 262.07 220.689V55.1719C262.07 47.5547 255.895 41.3782 248.276 41.3782C240.657 41.3782 234.482 47.5532 234.482 55.1719V220.689Z" fill="#D71E00"/>
<path d="M165.517 151.723C157.9 151.723 151.723 157.898 151.723 165.517C151.723 173.134 157.898 179.311 165.517 179.311H275.862C283.479 179.311 289.656 173.136 289.656 165.517C289.656 157.9 283.481 151.723 275.862 151.723H165.517Z" fill="#D71E00"/>
<path d="M275.862 234.483C283.479 234.483 289.656 228.308 289.656 220.689C289.656 213.07 283.481 206.895 275.862 206.895H220.69C213.073 206.895 206.896 213.07 206.896 220.689C206.896 228.308 213.071 234.483 220.69 234.483H275.862Z" fill="#D71E00"/>
<path d="M399.437 399.967C414.292 362.133 445.726 331.002 485.188 331.002C518.403 331.002 548.002 346.616 567.948 372.381C592.968 404.713 610.651 476.684 555.893 531.444C528.113 559.222 399.437 689.622 399.437 689.622C399.437 689.622 270.76 559.222 242.982 531.442C188.223 476.683 205.906 404.711 230.928 372.38C250.873 346.614 280.473 331 313.687 331C353.148 331.002 384.582 362.133 399.437 399.967Z" fill="#D71E00"/>
</svg>
