<svg width="800" height="800" viewBox="0 0 800 800" fill="none" xmlns="http://www.w3.org/2000/svg">
<path d="M662.069 0H137.931C122.691 0 110.345 12.3453 110.345 27.5859V772.414C110.345 787.655 122.691 800 137.931 800H662.069C677.309 800 689.655 787.655 689.655 772.414V27.5859C689.655 12.3453 677.311 0 662.069 0Z" fill="#E6EEF4"/>
<path d="M234.483 68.9657C242.1 68.9657 248.276 62.7907 248.276 55.1719C248.276 47.5532 242.101 41.3782 234.483 41.3782H165.517C157.9 41.3782 151.723 47.5532 151.723 55.1719C151.723 62.7907 157.898 68.9657 165.517 68.9657H234.483Z" fill="#D71E00"/>
<path d="M151.723 124.138C151.723 131.755 157.898 137.931 165.517 137.931C173.134 137.931 179.311 131.756 179.311 124.138V55.1719C179.311 47.5547 173.136 41.3782 165.517 41.3782C157.9 41.3782 151.723 47.5532 151.723 55.1719V124.138Z" fill="#D71E00"/>
<path d="M197.71 209.963C229.025 209.963 254.414 184.573 254.414 153.259C254.414 121.945 229.025 96.5563 197.71 96.5563C181.234 96.5563 165.859 103.639 155.175 115.748C150.134 121.461 150.679 130.177 156.392 135.217C162.104 140.258 170.82 139.713 175.86 134C181.359 127.769 189.229 124.144 197.71 124.144C213.789 124.144 226.828 137.183 226.828 153.261C226.828 169.339 213.789 182.378 197.71 182.378C189.229 182.378 181.368 178.75 175.86 172.508C170.82 166.795 162.104 166.252 156.392 171.291C150.679 176.331 150.135 185.047 155.175 190.759C165.864 202.873 181.228 209.963 197.71 209.963Z" fill="#D71E00"/>
<path d="M400.437 372.967C415.292 335.133 446.726 304.002 486.188 304.002C519.403 304.002 549.002 319.616 568.948 345.381C593.968 377.713 611.651 449.684 556.893 504.444C529.113 532.222 400.437 662.622 400.437 662.622C400.437 662.622 271.76 532.222 243.982 504.442C189.223 449.683 206.906 377.711 231.928 345.38C251.873 319.614 281.473 304 314.687 304C354.148 304.002 385.582 335.133 400.437 372.967Z" fill="#D71E00"/>
</svg>
