<svg width="800" height="800" viewBox="0 0 800 800" fill="none" xmlns="http://www.w3.org/2000/svg">
<path d="M662.069 0H137.931C122.691 0 110.345 12.3453 110.345 27.5859V772.414C110.345 787.655 122.691 800 137.931 800H662.069C677.309 800 689.655 787.655 689.655 772.414V27.5859C689.655 12.3453 677.311 0 662.069 0Z" fill="#E6EEF4"/>
<path d="M206.897 220.689C237.37 220.689 262.069 195.989 262.069 165.517C262.069 135.045 237.369 110.345 206.897 110.345C176.425 110.345 151.725 135.045 151.725 165.517C151.725 195.989 176.424 220.689 206.897 220.689ZM206.897 137.931C222.134 137.931 234.483 150.28 234.483 165.517C234.483 180.755 222.134 193.103 206.897 193.103C191.659 193.103 179.311 180.755 179.311 165.517C179.311 150.28 191.659 137.931 206.897 137.931Z" fill="#D71E00"/>
<path d="M248.277 68.9657C255.894 68.9657 262.07 62.7907 262.07 55.1719C262.07 47.5532 255.895 41.3782 248.277 41.3782C192.024 41.3782 151.725 92.5407 151.725 165.516C151.725 173.133 157.9 179.309 165.519 179.309C173.136 179.309 179.313 173.134 179.313 165.516C179.311 106.528 208.897 68.9657 248.277 68.9657Z" fill="#D71E00"/>
<path d="M399.517 248L234 454.897L399.517 661.792L565.034 454.897L399.517 248Z" fill="#D71E00"/>
</svg>
