<svg width="580" height="800" viewBox="0 0 580 800" fill="none" xmlns="http://www.w3.org/2000/svg">
<path d="M551.723 0H27.5859C12.3453 0 0 12.3453 0 27.5859V772.414C0 787.655 12.3453 800 27.5859 800H551.723C566.964 800 579.309 787.655 579.309 772.414V27.5859C579.309 12.3453 566.966 0 551.723 0Z" fill="#E6EEF4"/>
<path d="M41.3779 96.5515V179.311C41.3779 209.687 66.1732 234.483 96.5498 234.483C126.926 234.483 151.722 209.687 151.722 179.311V96.5515C151.722 66.1749 126.926 41.3796 96.5498 41.3796C66.1732 41.3796 41.3779 66.1749 41.3779 96.5515ZM124.137 96.5515V179.311C124.137 194.452 111.692 206.897 96.5514 206.897C81.4108 206.897 68.9654 194.452 68.9654 179.311V96.5515C68.9654 81.4109 81.4108 68.9656 96.5514 68.9656C111.692 68.9656 124.137 81.4109 124.137 96.5515Z" fill="#D71E00"/>
<path d="M143.448 231.723C149.542 236.294 158.187 235.059 162.759 228.964C167.33 222.87 166.095 214.225 160 209.653L104.828 168.273C98.7344 163.703 90.089 164.937 85.5172 171.033C80.9469 177.126 82.1812 185.772 88.2765 190.344L143.448 231.723Z" fill="#D71E00"/>
<path d="M290.437 374.967C305.292 337.133 336.726 306.002 376.188 306.002C409.403 306.002 439.002 321.616 458.948 347.381C483.968 379.713 501.651 451.684 446.893 506.444C419.113 534.222 290.437 664.622 290.437 664.622C290.437 664.622 161.76 534.222 133.982 506.442C79.2228 451.683 96.9056 379.711 121.928 347.38C141.873 321.614 171.473 306 204.687 306C244.148 306.002 275.582 337.133 290.437 374.967Z" fill="#D71E00"/>
</svg>
