<svg width="66" height="74" viewBox="0 0 66 74" fill="none" xmlns="http://www.w3.org/2000/svg">
<path d="M3 17H9.66667M9.66667 17H63M9.66667 17V63.6666C9.66667 65.4347 10.369 67.1304 11.6193 68.3807C12.8695 69.6309 14.5652 70.3333 16.3333 70.3333H49.6667C51.4348 70.3333 53.1305 69.6309 54.3807 68.3807C55.631 67.1304 56.3333 65.4347 56.3333 63.6666V17M19.6667 17V10.3333C19.6667 8.56518 20.369 6.86949 21.6193 5.61925C22.8695 4.369 24.5652 3.66663 26.3333 3.66663H39.6667C41.4348 3.66663 43.1305 4.369 44.3807 5.61925C45.631 6.86949 46.3333 8.56518 46.3333 10.3333V17M26.3333 33.6666V53.6666M39.6667 33.6666V53.6666" stroke="#1E1E1E" stroke-width="6" stroke-linecap="round" stroke-linejoin="round"/>
</svg>
